<svg width="440" height="100" viewBox="0 0 440 100" xmlns="http://www.w3.org/2000/svg" role="img" aria-label="Spidergraph">
  <g transform="translate(6,6) scale(0.7)">
    <!-- grid rings -->
    <polygon points="60,28 82.63,37.37 92,60 82.63,82.63 60,92 37.37,82.63 28,60 37.37,37.37" fill="none" stroke="#2b3542" stroke-width="1.6"/>
    <polygon points="60,44 71.31,48.69 76,60 71.31,71.31 60,76 48.69,71.31 44,60 48.69,48.69" fill="none" stroke="#2b3542" stroke-width="1.6"/>
    <!-- spokes -->
    <g stroke="#2b3542" stroke-width="1.6">
      <line x1="60" y1="60" x2="60" y2="12"/>
      <line x1="60" y1="60" x2="93.94" y2="26.06"/>
      <line x1="60" y1="60" x2="108" y2="60"/>
      <line x1="60" y1="60" x2="93.94" y2="93.94"/>
      <line x1="60" y1="60" x2="60" y2="108"/>
      <line x1="60" y1="60" x2="26.06" y2="93.94"/>
      <line x1="60" y1="60" x2="12" y2="60"/>
      <line x1="60" y1="60" x2="26.06" y2="26.06"/>
    </g>
    <polygon points="60,12 93.94,26.06 108,60 93.94,93.94 60,108 26.06,93.94 12,60 26.06,26.06" fill="none" stroke="#374252" stroke-width="1.8"/>
    <polygon points="60,16 75.56,44.44 98,60 81.21,81.21 60,106 47.27,72.73 26,60 41.62,41.62"
             fill="#3ddc97" fill-opacity="0.28" stroke="#3ddc97" stroke-width="2.8" stroke-linejoin="round"/>
    <g fill="#3ddc97">
      <circle cx="60" cy="16" r="3.8"/><circle cx="75.56" cy="44.44" r="3.8"/><circle cx="98" cy="60" r="3.8"/>
      <circle cx="81.21" cy="81.21" r="3.8"/><circle cx="60" cy="106" r="3.8"/><circle cx="47.27" cy="72.73" r="3.8"/>
      <circle cx="26" cy="60" r="3.8"/><circle cx="41.62" cy="41.62" r="3.8"/>
    </g>
    <circle cx="60" cy="60" r="3" fill="#e6ecf3"/>
  </g>

  <text x="110" y="48" font-family="'Space Grotesk', 'Segoe UI', sans-serif" font-size="34" font-weight="700"
        fill="#e6ecf3" letter-spacing="-0.5">SPIDER<tspan fill="#3ddc97">GRAPH</tspan></text>
  <text x="111" y="70" font-family="'IBM Plex Mono', monospace" font-size="11.5" letter-spacing="2.2"
        fill="#5e6b7c">PERSONAL SECURITY PROGRAM</text>
</svg>
